<?xml version="1.0" standalone="no"?>
<!DOCTYPE svg PUBLIC "-//W3C//DTD SVG 20010904//EN"
 "http://www.w3.org/TR/2001/REC-SVG-20010904/DTD/svg10.dtd">
<svg version="1.0" xmlns="http://www.w3.org/2000/svg"
 width="745pt" height="335pt" viewBox="0 0 745 335"
 preserveAspectRatio="xMidYMid meet">

<g transform="translate(0.000000,335.000000) scale(0.100000,-0.100000)"
fill="#000000" stroke="none">
<path d="M3440 3301 c-189 -15 -540 -83 -540 -104 0 -11 43 -46 82 -67 45 -24
218 -153 218 -162 0 -4 5 -8 11 -8 6 0 29 -17 50 -37 l40 -38 377 0 c381 0
401 -1 587 -42 178 -38 336 -110 418 -191 66 -65 107 -154 107 -232 l0 -60
240 0 240 0 0 99 c0 182 -65 336 -196 463 -68 66 -135 118 -190 148 -22 12
-46 25 -54 30 -8 5 -37 18 -65 30 -27 12 -58 26 -69 32 -29 15 -177 61 -261
79 -214 48 -331 60 -615 64 -157 2 -328 0 -380 -4z"/>
<path d="M205 3240 l-110 -5 -7 -75 c-8 -87 0 -3071 8 -3079 3 -4 312 -7 687
-9 682 -3 1177 7 1337 28 47 6 103 13 125 16 70 8 76 20 30 57 -76 61 -172
165 -220 239 -27 40 -53 76 -59 80 -6 4 -324 8 -707 8 l-697 0 -7 38 c-4 20
-4 546 0 1169 l8 1131 471 -4 c843 -8 990 -15 1141 -58 143 -41 284 -104 381
-168 23 -16 45 -28 49 -28 7 0 76 -53 107 -83 56 -53 163 -125 229 -155 57
-26 237 -85 309 -102 30 -7 78 -19 107 -26 136 -37 134 -5 -16 271 -67 123
-184 266 -296 360 -115 97 -307 207 -440 250 -39 13 -81 28 -95 33 -58 23
-173 55 -340 97 -44 11 -235 15 -970 18 -503 1 -964 1 -1025 -3z"/>
<path d="M5635 3240 c-148 -4 -297 -12 -330 -19 -33 -7 -85 -17 -116 -23 -87
-16 -88 -18 -36 -84 25 -33 69 -84 96 -114 28 -30 65 -79 83 -108 58 -94 50
-90 158 -81 125 11 1393 29 1403 20 4 -4 6 -531 5 -1172 l-3 -1164 -110 0
c-369 2 -896 9 -1120 16 -279 8 -381 22 -495 66 -301 117 -498 272 -630 495
-19 31 -43 61 -54 66 -83 40 -115 52 -135 52 -12 0 -43 6 -69 14 -56 16 -194
42 -276 52 l-58 7 7 -34 c26 -133 120 -349 213 -490 28 -43 90 -117 139 -165
87 -88 104 -104 174 -156 34 -26 187 -118 195 -118 2 0 32 -13 66 -29 102 -47
341 -131 374 -131 13 0 34 -4 48 -10 14 -5 83 -17 153 -25 127 -16 354 -22
1601 -41 l482 -7 0 1596 0 1597 -747 -2 c-412 -1 -869 -5 -1018 -8z"/>
<path d="M4226 2649 c-52 -41 -128 -168 -211 -354 -18 -41 -45 -131 -45 -152
0 -20 34 -32 152 -53 62 -12 157 -30 210 -41 54 -12 104 -19 111 -16 6 2 18
22 26 43 7 22 39 93 71 159 79 165 85 187 66 223 -33 64 -102 110 -298 196
-46 20 -50 20 -82 -5z"/>
<path d="M2187 2573 c-10 -9 -8 -199 2 -264 30 -184 119 -324 279 -442 156
-115 440 -223 737 -282 44 -8 121 -24 170 -35 85 -18 130 -25 380 -65 467 -74
764 -147 909 -223 127 -67 210 -170 230 -285 5 -26 20 -51 49 -80 67 -66 253
-150 362 -163 73 -9 84 7 96 138 24 277 -30 446 -196 614 -133 133 -286 217
-540 298 -138 43 -221 62 -500 111 -49 9 -112 21 -140 26 -27 6 -167 30 -310
55 -382 66 -378 65 -585 120 -52 14 -111 29 -130 34 -71 18 -144 64 -357 226
-68 52 -126 94 -128 94 -2 0 -23 13 -47 28 -96 64 -258 119 -281 95z"/>
<path d="M3052 1403 c-12 -22 -42 -143 -42 -167 0 -30 -96 -211 -159 -300 -33
-47 -61 -90 -61 -94 0 -17 68 -71 120 -95 114 -52 174 -69 271 -74 l96 -6 33
59 c119 211 230 486 230 569 0 19 -1 35 -2 35 -2 0 -103 20 -226 45 -123 25
-229 45 -237 45 -8 0 -18 -8 -23 -17z"/>
<path d="M2083 1044 c-11 -30 6 -248 26 -319 54 -197 160 -335 346 -452 74
-47 225 -113 300 -133 17 -4 73 -19 125 -33 152 -40 260 -56 499 -72 393 -26
876 -12 1031 30 30 8 68 15 83 15 35 0 97 28 97 44 0 10 -97 80 -150 106 -14
7 -27 16 -30 20 -3 3 -27 21 -54 39 -26 19 -82 63 -122 98 l-74 65 -101 -11
c-276 -30 -755 1 -1014 66 -212 53 -382 162 -436 280 -11 24 -24 90 -31 155
l-13 113 -238 3 c-211 2 -238 1 -244 -14z"/>
</g>
</svg>
