<?xml version="1.0" standalone="no"?>
<!DOCTYPE svg PUBLIC "-//W3C//DTD SVG 20010904//EN"
 "http://www.w3.org/TR/2001/REC-SVG-20010904/DTD/svg10.dtd">
<svg version="1.0" xmlns="http://www.w3.org/2000/svg"
 width="557.000000pt" height="448.000000pt" viewBox="0 0 557.000000 448.000000"
 preserveAspectRatio="xMidYMid meet">

<g transform="translate(0.000000,448.000000) scale(0.100000,-0.100000)"
fill="#000000" stroke="none">
<path d="M2540 3295 c-99 -15 -180 -35 -180 -44 0 -3 25 -21 54 -38 29 -18 76
-53 103 -78 l50 -44 164 6 c234 8 387 -21 500 -96 51 -34 74 -69 84 -128 l7
-43 120 0 120 0 -4 68 c-11 209 -199 351 -523 397 -121 18 -377 17 -495 0z"/>
<path d="M950 2476 l0 -806 443 0 c392 0 557 7 649 26 28 5 28 6 -35 68 -34
34 -70 78 -80 97 l-19 34 -354 -3 -354 -3 2 588 3 588 355 -1 c330 -1 361 -2
440 -23 113 -29 216 -81 289 -147 33 -30 85 -66 116 -80 56 -24 207 -64 245
-64 19 0 19 1 -1 53 -70 178 -221 324 -411 397 -184 71 -198 72 -770 77 l-518
5 0 -806z"/>
<path d="M3650 3274 c-14 -2 -59 -9 -100 -15 -41 -6 -78 -13 -81 -15 -3 -1 22
-32 56 -67 34 -35 67 -78 74 -96 12 -28 16 -30 50 -25 20 3 191 6 381 7 l345
2 3 -588 2 -589 -377 5 c-341 4 -385 6 -450 24 -154 44 -280 132 -347 242 -37
61 -44 64 -156 90 -51 12 -149 31 -156 31 -6 0 4 -45 22 -100 72 -214 247
-376 487 -450 162 -50 184 -52 720 -57 l507 -5 0 806 0 806 -477 -1 c-263 -1
-489 -3 -503 -5z"/>
<path d="M2992 2932 c-41 -65 -83 -161 -85 -200 -2 -24 2 -27 48 -35 28 -5 81
-15 119 -22 75 -15 86 -13 86 14 0 10 14 45 31 79 21 43 29 72 27 99 -3 34 -9
41 -56 69 -28 17 -70 36 -93 42 l-40 10 -37 -56z"/>
<path d="M2003 2934 c-3 -8 -3 -52 -1 -97 8 -154 86 -249 266 -326 112 -47
234 -77 502 -121 325 -53 426 -78 498 -124 54 -34 89 -79 97 -125 3 -21 14
-46 24 -55 24 -22 140 -73 183 -81 36 -7 37 -7 48 37 19 68 8 183 -23 251 -46
100 -170 196 -310 238 -100 31 -241 61 -417 89 -168 27 -389 72 -447 91 -42
14 -92 43 -160 96 -100 77 -146 105 -215 129 -34 12 -40 11 -45 -2z"/>
<path d="M2436 2353 c-3 -3 -6 -17 -6 -29 0 -41 -41 -137 -86 -201 l-44 -62
33 -25 c37 -28 99 -53 165 -65 l44 -9 39 60 c46 72 96 198 101 253 3 38 1 40
-27 43 -16 1 -61 9 -100 18 -108 23 -112 24 -119 17z"/>
<path d="M1946 2165 c-7 -20 9 -149 25 -195 31 -91 116 -176 225 -226 103 -48
212 -72 414 -90 149 -14 198 -15 330 -4 140 10 274 30 286 42 2 3 -31 28 -73
56 -43 28 -94 66 -113 84 l-35 33 -230 1 c-203 0 -240 3 -313 22 -189 49 -262
115 -262 237 l0 55 -124 0 c-101 0 -125 -3 -130 -15z"/>
<path d="M310 1205 l0 -167 108 4 c74 3 117 9 138 21 80 42 86 226 10 280 -27
19 -47 22 -143 26 l-113 3 0 -167z m201 76 c20 -16 24 -28 24 -76 0 -72 -23
-95 -96 -95 l-49 0 0 95 0 95 49 0 c33 0 56 -6 72 -19z"/>
<path d="M760 1205 l0 -165 40 0 40 0 0 165 0 165 -40 0 -40 0 0 -165z"/>
<path d="M1070 1362 c-58 -26 -90 -81 -90 -156 0 -120 63 -172 198 -164 69 5
78 8 104 37 23 25 28 41 28 81 l0 50 -75 0 -75 0 0 -30 c0 -28 3 -30 35 -30
19 0 35 -4 35 -9 0 -19 -31 -33 -75 -33 -66 -1 -90 25 -90 98 0 49 3 59 29 81
25 21 37 24 70 20 24 -4 48 -14 58 -26 17 -22 88 -30 88 -11 0 25 -32 71 -60
85 -30 15 -150 20 -180 7z"/>
<path d="M1450 1205 l0 -165 40 0 40 0 0 165 0 165 -40 0 -40 0 0 -165z"/>
<path d="M1672 1338 c3 -32 4 -33 56 -36 l52 -3 0 -130 0 -129 40 0 40 0 0
130 0 130 50 0 50 0 0 35 0 35 -146 0 -145 0 3 -32z"/>
<path d="M2124 1273 c-20 -54 -48 -125 -60 -157 -13 -33 -24 -63 -24 -68 0 -4
18 -8 39 -8 34 0 40 4 50 30 10 29 12 30 75 30 62 0 64 -1 75 -30 9 -27 14
-30 51 -30 23 0 40 4 38 8 -1 5 -30 79 -63 165 l-59 157 -42 0 -42 0 -38 -97z
m99 -58 l16 -45 -35 0 c-32 0 -35 2 -28 23 13 41 23 67 28 67 2 0 11 -20 19
-45z"/>
<path d="M2510 1205 l0 -165 135 0 135 0 0 35 0 35 -95 0 -95 0 0 130 0 130
-40 0 -40 0 0 -165z"/>
<path d="M3154 1358 c-27 -13 -44 -49 -44 -94 0 -70 36 -94 140 -94 60 0 85
-14 74 -43 -7 -18 -63 -30 -98 -21 -14 3 -28 15 -31 25 -5 14 -16 19 -46 19
-35 0 -39 -3 -39 -24 0 -14 11 -37 24 -53 21 -25 32 -28 99 -31 78 -4 137 8
157 33 7 8 13 38 13 65 1 76 -20 93 -125 100 -72 4 -83 8 -86 24 -9 47 85 65
114 21 13 -20 25 -25 56 -25 33 0 39 3 34 18 -2 9 -7 26 -10 37 -11 37 -57 55
-138 54 -40 0 -83 -5 -94 -11z"/>
<path d="M3550 1335 l0 -35 50 0 50 0 0 -130 0 -130 40 0 40 0 0 130 0 130 50
0 50 0 0 35 0 35 -140 0 -140 0 0 -35z"/>
<path d="M4043 1350 c-46 -27 -64 -70 -64 -146 0 -114 51 -164 166 -164 111 0
165 53 165 163 0 120 -47 167 -165 167 -52 0 -78 -5 -102 -20z m147 -55 c33
-17 46 -62 37 -122 -9 -51 -28 -66 -83 -66 -62 0 -84 25 -84 95 0 57 12 86 43
98 33 13 55 12 87 -5z"/>
<path d="M4530 1357 c-103 -52 -100 -259 5 -303 39 -16 141 -19 179 -4 37 14
66 47 66 75 0 22 -4 25 -36 25 -24 0 -41 -7 -53 -21 -22 -28 -102 -30 -131 -4
-25 23 -28 119 -5 152 29 41 133 39 149 -3 3 -9 20 -14 46 -14 l40 0 -13 33
c-22 53 -68 77 -151 77 -39 0 -82 -6 -96 -13z"/>
<path d="M4930 1204 l0 -165 38 3 37 3 3 63 c2 34 7 62 12 62 4 0 34 -29 65
-65 56 -64 59 -65 107 -65 l50 0 -27 33 c-15 17 -52 59 -81 91 -30 33 -52 62
-49 65 3 3 36 36 72 74 l68 67 -49 0 c-45 0 -53 -4 -105 -52 l-56 -53 -3 53
-3 52 -40 0 -39 0 0 -166z"/>
</g>
</svg>
